# 3ds Max Wavefront OBJ Exporter v0.97b - (c)2007 guruware
# File Created: 10.03.2016 13:29:36

mtllib monitor.mtl

#
# object Box001
#

v  -124.1664 6.3500 199.1181
v  -124.1664 6.3500 -181.8819
v  129.8336 6.3500 -181.8819
v  129.8336 6.3500 199.1181
v  -31.2069 19.0500 158.1595
v  -31.2069 19.0500 -140.9233
v  -66.7797 19.0500 -140.9233
v  -66.7797 19.0500 158.1595
v  -136.8664 0.0000 211.8181
v  142.5336 0.0000 211.8181
v  142.5336 12.7000 211.8181
v  -136.8664 12.7000 211.8181
v  142.5336 0.0000 -194.5819
v  142.5336 12.7000 -194.5819
v  -136.8664 0.0000 -194.5819
v  -136.8664 12.7000 -194.5819
v  101.5750 12.7000 170.8595
v  -95.9078 12.7000 170.8595
v  101.5750 12.7000 -153.6233
v  101.5750 12.7000 -30.3198
v  101.5750 12.7000 47.5560
v  -95.9078 12.7000 -153.6233
v  101.5750 38.1000 170.8595
v  -18.5069 38.1000 170.8595
v  -79.4797 38.1000 170.8595
v  -95.9078 38.1000 170.8595
v  139.6750 12.7000 -30.3198
v  139.6750 38.1000 -30.3198
v  139.6750 38.1000 47.5560
v  139.6750 12.7000 47.5560
v  -95.9078 38.1000 -153.6233
v  -79.4797 38.1000 -153.6233
v  -18.5069 38.1000 -153.6233
v  101.5750 38.1000 -153.6233
v  -124.1664 0.0000 -181.8819
v  -124.1664 0.0000 199.1181
v  129.8336 0.0000 -181.8819
v  129.8336 0.0000 199.1181
v  101.5750 38.1000 -30.3198
v  101.5750 38.1000 47.5560
v  -31.2069 38.1000 158.1595
v  -66.7797 38.1000 158.1595
v  -31.2069 38.1000 -140.9233
v  -66.7797 38.1000 -140.9233
# 44 vertices

vn 0.0000 -1.0000 -0.0000
vn 0.0000 1.0000 -0.0000
vn 0.0000 0.0000 1.0000
vn 1.0000 0.0000 -0.0000
vn 0.0000 0.0000 -1.0000
vn -1.0000 0.0000 -0.0000
# 6 vertex normals

vt 1.0000 0.0000 0.0000
vt 1.0000 1.0000 0.0000
vt 0.0000 1.0000 0.0000
vt 0.0000 0.0000 0.0000
vt 0.3919 0.0000 0.0000
vt 0.3919 1.0000 0.0000
vt 0.0832 1.0000 0.0000
vt 0.0832 0.0000 0.0000
vt 1.0000 0.6200 0.0000
vt 1.0000 0.3800 0.0000
# 10 texture coords

g Box001
usemtl 02___Default
s 2
f 1/1/1 2/2/1 3/3/1 4/4/1 
usemtl 01___Default
s 4
f 5/5/2 6/6/2 7/7/2 8/8/2 
s 8
f 9/4/3 10/1/3 11/2/3 12/3/3 
s 16
f 10/4/4 13/1/4 14/2/4 11/3/4 
s 32
f 13/4/5 15/1/5 16/2/5 14/3/5 
s 64
f 15/4/6 9/1/6 12/2/6 16/3/6 
s off
f 12/4/2 11/1/2 17/1/2 18/4/2 
f 11/1/2 14/2/2 19/2/2 20/9/2 
f 11/1/2 20/9/2 21/10/2 17/1/2 
f 14/2/2 16/3/2 22/3/2 19/2/2 
f 16/3/2 12/4/2 18/4/2 22/3/2 
f 18/4/3 17/1/3 23/1/3 24/5/3 
f 18/4/3 24/5/3 25/8/3 26/4/3 
f 27/9/4 28/9/4 29/10/4 30/10/4 
f 19/2/5 22/3/5 31/3/5 32/7/5 
f 19/2/5 32/7/5 33/6/5 34/2/5 
f 22/3/6 18/4/6 26/4/6 31/3/6 
f 9/1/1 15/2/1 35/2/1 36/1/1 
f 15/2/1 13/3/1 37/3/1 35/2/1 
f 13/3/1 10/4/1 38/4/1 37/3/1 
s 1
f 10/4/1 9/1/1 36/1/1 38/4/1 
s off
f 36/1/4 35/2/4 2/2/4 1/1/4 
f 35/2/3 37/3/3 3/3/3 2/2/3 
f 37/3/6 38/4/6 4/4/6 3/3/6 
f 38/4/5 36/1/5 1/1/5 4/4/5 
s 4
f 39/9/2 34/2/2 33/6/2 40/10/2 
f 23/1/2 40/10/2 33/6/2 24/5/2 
f 31/3/2 26/4/2 25/8/2 32/7/2 
s off
f 25/8/2 24/5/2 41/5/2 42/8/2 
f 24/5/2 33/6/2 43/6/2 41/5/2 
f 33/6/2 32/7/2 44/7/2 43/6/2 
f 32/7/2 25/8/2 42/8/2 44/7/2 
f 42/8/5 41/5/5 5/5/5 8/8/5 
f 41/5/6 43/6/6 6/6/6 5/5/6 
f 43/6/3 44/7/3 7/7/3 6/6/3 
f 44/7/4 42/8/4 8/8/4 7/7/4 
f 19/2/4 34/2/4 39/9/4 20/9/4 
f 23/1/4 17/1/4 21/10/4 40/10/4 
f 21/10/1 20/9/1 27/9/1 30/10/1 
f 20/9/5 39/9/5 28/9/5 27/9/5 
f 39/9/2 40/10/2 29/10/2 28/9/2 
f 40/10/3 21/10/3 30/10/3 29/10/3 
# 42 polygons

